<svg width="50" height="50" viewBox="0 0 50 50" fill="none" xmlns="http://www.w3.org/2000/svg">
<path fill-rule="evenodd" clip-rule="evenodd" d="M2.08325 5.91267C2.08325 4.89711 2.48668 3.92315 3.20479 3.20504C3.9229 2.48693 4.89686 2.0835 5.91242 2.0835H44.0832C44.5865 2.08268 45.085 2.18113 45.5502 2.37322C46.0154 2.56531 46.4381 2.84727 46.7941 3.20295C47.1502 3.55863 47.4326 3.98105 47.6252 4.44602C47.8178 4.91099 47.9168 5.40939 47.9165 5.91267V44.0835C47.9171 44.5869 47.8184 45.0854 47.6261 45.5506C47.4337 46.0158 47.1516 46.4385 46.7957 46.7946C46.4399 47.1506 46.0173 47.433 45.5523 47.6256C45.0872 47.8181 44.5887 47.9171 44.0853 47.9168H5.91242C5.40939 47.9168 4.91129 47.8177 4.44658 47.6252C3.98187 47.4326 3.55965 47.1504 3.20405 46.7946C2.84846 46.4388 2.56644 46.0164 2.37413 45.5516C2.18182 45.0868 2.08298 44.5886 2.08325 44.0856V5.91267ZM20.2249 19.5585H26.4311V22.6752C27.327 20.8835 29.6186 19.271 33.0624 19.271C39.6645 19.271 41.229 22.8398 41.229 29.3877V41.5168H34.5478V30.8793C34.5478 27.1502 33.652 25.046 31.377 25.046C28.2207 25.046 26.9082 27.3148 26.9082 30.8793V41.5168H20.2249V19.5585ZM8.76659 41.2314H15.4499V19.271H8.76659V41.2293V41.2314ZM16.4061 12.1085C16.4187 12.6807 16.3169 13.2497 16.1066 13.7821C15.8964 14.3144 15.5819 14.7994 15.1816 15.2086C14.7814 15.6177 14.3034 15.9428 13.7758 16.1648C13.2482 16.3867 12.6816 16.501 12.1093 16.501C11.5369 16.501 10.9703 16.3867 10.4427 16.1648C9.91513 15.9428 9.43719 15.6177 9.03694 15.2086C8.63669 14.7994 8.3222 14.3144 8.11192 13.7821C7.90164 13.2497 7.79982 12.6807 7.81242 12.1085C7.83715 10.9853 8.30072 9.9164 9.10385 9.13076C9.90697 8.34513 10.9858 7.9052 12.1093 7.9052C13.2327 7.9052 14.3116 8.34513 15.1147 9.13076C15.9178 9.9164 16.3814 10.9853 16.4061 12.1085Z" fill="white"/>
</svg>
