<svg width="50" height="50" viewBox="0 0 50 50" fill="none" xmlns="http://www.w3.org/2000/svg">
<path d="M45.2891 34.1953C44.9408 36.8418 43.6411 39.2711 41.6326 41.0294C39.6242 42.7877 37.0444 43.7548 34.375 43.75C18.8672 43.75 6.25002 31.1328 6.25002 15.625C6.24523 12.9556 7.2123 10.3758 8.97059 8.36734C10.7289 6.35889 13.1582 5.05916 15.8047 4.71091C16.4739 4.62919 17.1517 4.76611 17.7367 5.10122C18.3217 5.43633 18.7827 5.95166 19.0508 6.57028L23.1758 15.7793V15.8027C23.381 16.2762 23.4658 16.7933 23.4225 17.3075C23.3792 17.8218 23.2093 18.3174 22.9278 18.75C22.8926 18.8027 22.8555 18.8515 22.8164 18.9004L18.75 23.7207C20.2129 26.6933 23.3223 29.7754 26.334 31.2422L31.0879 27.1972C31.1346 27.158 31.1835 27.1215 31.2344 27.0879C31.6666 26.7996 32.1639 26.6236 32.6812 26.5759C33.1985 26.5281 33.7196 26.6101 34.1973 26.8144L34.2227 26.8261L43.4238 30.9492C44.0436 31.2163 44.5602 31.6769 44.8964 32.262C45.2326 32.8471 45.3704 33.5254 45.2891 34.1953Z" fill="#F8F8F8"/>
</svg>
